HIERARCHY
ROOT pelvis
{
  OFFSET 0 100 0
  CHANNELS 6 Xposition Yposition Zposition Zrotation Xrotation Yrotation
  JOINT pelvis_right_femur
  {
    OFFSET -10.78128 -3.44521 -0.5502486
    CHANNELS 3 Zrotation Xrotation Yrotation
    JOINT right_femur_tibia
    {
      OFFSET -0.8047443 -44.0398 -0.1307829
      CHANNELS 3 Zrotation Xrotation Yrotation
      JOINT right_tibia_foot
      {
        OFFSET 3.006224 -47.83518 -5
        CHANNELS 3 Zrotation Xrotation Yrotation
        End Site
        {
          OFFSET 0 -5 15
        }
      }
    }
  }
  JOINT pelvis_left_femur
  {
    OFFSET 10.78128 -3.44521 -0.5502486
    CHANNELS 3 Zrotation Xrotation Yrotation
    JOINT left_femur_tibia
    {
      OFFSET 0.8047443 -44.0398 -0.1307829
      CHANNELS 3 Zrotation Xrotation Yrotation
      JOINT left_tibia_foot
      {
        OFFSET -4.370144 -48.10324 -4.275266
        CHANNELS 3 Zrotation Xrotation Yrotation
        End Site
        {
          OFFSET 0 -5 15
        }
      }
    }
  }
  JOINT pelvis_spine1
  {
    OFFSET 0 6.468898 -3.129235
    CHANNELS 3 Zrotation Xrotation Yrotation
    JOINT spine1
    {
      OFFSET 0 23.15396 4.99043
      CHANNELS 3 Zrotation Xrotation Yrotation
      JOINT spine2
      {
        OFFSET 0 20.79997 -5.064912
        CHANNELS 3 Zrotation Xrotation Yrotation
        JOINT neck
        {
          OFFSET 0 14.38658 9.616178
          CHANNELS 3 Zrotation Xrotation Yrotation
          End Site
          {
            OFFSET 0 20 0
          }
        }
      }
      JOINT right_manubrium
      {
        OFFSET -5.722621 16.35077 3.967754
        CHANNELS 3 Zrotation Xrotation Yrotation
        JOINT right_clavicle
        {
          OFFSET -13.16364 1.694482 -4.693211
          CHANNELS 3 Zrotation Xrotation Yrotation
          JOINT right_humerus
          {
            OFFSET -28.5034 -0.3100689 -2.792744
            CHANNELS 3 Zrotation Xrotation Yrotation
            JOINT right_radius
            {
              OFFSET -25.15693 0.02248979 -1.271978
              CHANNELS 3 Zrotation Xrotation Yrotation
              End Site
              {
                OFFSET -15 0 0
              }
            }
          }
        }
      }
      JOINT left_manubrium
      {
        OFFSET 5.722621 16.35077 3.967754
        CHANNELS 3 Zrotation Xrotation Yrotation
        JOINT left_clavicle
        {
          OFFSET 13.16364 1.694482 -4.693211
          CHANNELS 3 Zrotation Xrotation Yrotation
          JOINT left_humerus
          {
            OFFSET 29.39168 -1.063119 -2.237045
            CHANNELS 3 Zrotation Xrotation Yrotation
            JOINT left_radius
            {
              OFFSET 24.59957 -0.9528479 0.9047498
              CHANNELS 3 Zrotation Xrotation Yrotation
              End Site
              {
                OFFSET 15 -0 -0
              }
            }
          }
        }
      }
    }
  }
}
MOTION
Frames: 23
Frame Time: 0.0416666666667
0 103.5113 0 0.2400242 -0.1185672 -0.05309446 4.626942 -17.93553 11.12999 -0 39.55449 -0 -6.419406 -17.4612 -3.592353 -6.452084 10.62657 -23.67519 -0 5.285151 -0 8.668126 -16.17432 27.20711 -2.828393 -4.447028 4.961615 2.154613 9.525435 -7.325595 2.109677 22.14425 5.490434 2.263981 -24.89564 9.654732 6.504486 -20.24546 10.89195 85.21316 34.55789 -18.3378 -0 0 17.31631 -5.536316 7.761236 3.660987 5.907792 -18.90878 -1.037195 -95.19672 26.29089 23.6109 0 0 -13.00088 10.20095 18.90198 3.36949
0.2394004 104.0423 1.592059 0.1086358 -0.2337823 -0.08183229 4.622082 -18.13457 10.77951 -0 39.402 -0 -6.609544 -16.49958 -3.465813 -6.322 10.71646 -23.32705 -0 5.26943 -0 8.132115 -16.45878 26.77304 -2.686428 -4.331259 4.860074 2.119532 9.608121 -7.347188 2.047543 22.15197 5.635103 2.344396 -24.95523 9.659782 6.301317 -20.24971 10.92907 85.46552 34.1116 -18.50431 -0 0 17.08473 -5.996569 7.81031 3.817076 5.941289 -19.18256 -1.191973 -95.156 26.33646 23.59842 0 0 -13.22722 9.940853 18.92449 3.680718
0.5715029 104.1762 4.070474 -0.4704739 -1.36933 0.06104733 4.051921 -21.33309 6.285256 -0 36.03094 -0 -8.095353 -7.800129 -1.799266 -5.784117 10.66159 -19.50681 -0 5.113457 -0 7.928463 -17.44159 24.28696 -2.291926 -2.684702 3.865987 2.084835 10.77726 -7.511951 1.43001 22.01355 7.010147 3.118317 -25.03539 9.633152 4.600324 -20.07449 11.63462 87.38778 32.03391 -18.63698 -0 0 14.37527 -11.29117 8.969605 6.279577 6.381153 -21.58054 -2.619563 -91.51671 22.00486 19.53072 0 0 -16.05784 12.99194 16.65808 -0.6548741
0.9217404 104.2433 6.599688 -0.3723559 -0.8248574 0.2114479 4.257969 -23.16282 5.808059 -0 33.47771 -0 -7.774856 -8.165131 -1.582077 -6.040871 10.73514 -19.44748 -0 5.205345 -0 9.592492 -17.51638 24.74671 -2.588137 -2.370523 3.871489 2.347619 10.69598 -7.571932 1.383713 21.79447 7.269295 3.247007 -25.21987 9.828289 4.712751 -19.83099 11.77654 87.27129 33.22955 -18.56016 -0 0 13.91452 -11.17092 9.333193 6.339478 6.581738 -21.65619 -2.457549 -90.55117 20.71472 18.21511 0 0 -17.2759 14.64526 15.7224 -2.864664
1.30496 104.1142 9.233993 -0.2146081 0.1954629 0.3970744 4.600942 -26.20049 5.029222 -0 29.33039 -0 -7.109478 -8.669942 -1.163811 -6.497051 11.12244 -19.5186 -0 4.919671 -0 11.81473 -17.90619 25.28978 -3.054601 -1.87341 3.840264 2.761367 10.41875 -7.633363 1.280521 21.43724 7.796233 3.497714 -25.58067 10.20071 4.85474 -19.36868 11.97396 87.14764 35.06859 -18.58783 -0 0 13.09431 -10.7551 9.775341 6.430826 6.904239 -21.70792 -2.18253 -89.19487 19.25965 16.31734 0 0 -19.71703 16.48113 14.17727 -5.431647
1.72009 103.7877 12.01072 -0.08854789 0.8596848 0.6498784 4.681096 -28.4532 3.989164 -0 26.36934 -0 -6.65503 -8.702409 -0.6123639 -6.830097 11.71712 -19.61194 -0 4.087417 -0 12.98533 -18.35225 25.3747 -3.330253 -1.43689 3.669094 2.948703 10.11609 -7.561964 1.16313 21.27264 8.327267 3.752696 -25.71209 10.50429 4.819539 -18.90614 12.07294 87.18887 36.23222 -18.56212 -0 0 12.28867 -10.62588 10.06646 6.644217 7.184059 -21.74758 -2.112036 -88.04069 18.37954 14.64359 0 0 -22.04769 17.51688 13.06378 -7.049344
2.158285 103.3211 14.96513 -0.07745603 1.277318 0.9757996 4.696505 -30.0254 3.029132 -0 24.20644 -0 -6.444053 -8.378216 -0.1200035 -6.982218 12.37598 -19.55328 -0 3.410855 -0 13.20496 -18.84583 25.04565 -3.387934 -1.124661 3.457451 3.01315 9.847503 -7.470961 1.071665 21.21655 8.730752 3.926664 -25.78535 10.72874 4.633773 -18.52139 12.07482 87.39238 36.67113 -18.64063 -0 0 11.5655 -10.63422 10.20789 6.819856 7.393734 -21.83817 -2.135896 -87.24333 18.02912 13.43517 0 0 -23.87442 17.91977 12.45602 -7.807486
2.610822 102.7487 18.10356 -0.112542 1.284548 1.349124 4.528725 -30.78405 1.983726 -0 22.87774 -0 -6.558408 -7.782702 0.3189006 -6.974432 12.951 -19.29826 -0 3.089646 -0 12.76441 -19.19703 24.42865 -3.281119 -0.8927271 3.206357 2.931142 9.684135 -7.35041 0.9971201 21.31098 8.99669 4.046265 -25.65699 10.81329 4.331004 -18.21147 12.01214 87.70335 36.52854 -18.68699 -0 0 10.93096 -11.0004 10.29004 6.998994 7.54346 -22.01465 -2.320185 -86.62317 17.80513 12.42799 0 0 -25.08156 18.11411 12.28236 -8.308152
3.074242 102.1081 21.42298 -0.148874 1.094509 1.747252 4.284528 -31.08376 0.9587022 -0 21.9192 -0 -6.822008 -7.117843 0.6988812 -6.90452 13.41487 -18.93415 -0 3.096574 -0 12.07398 -19.43266 23.71899 -3.1159 -0.7240552 2.973176 2.788716 9.590511 -7.229454 0.9369466 21.46985 9.161831 4.131229 -25.42724 10.80588 3.997778 -17.95583 11.92435 88.04653 36.13948 -18.73096 -0 0 10.38098 -11.51861 10.33744 7.14398 7.658969 -22.23417 -2.571207 -86.12751 17.60786 11.57239 0 0 -25.89931 18.23857 12.31865 -8.717455
3.548098 101.4126 24.91939 -0.1410034 0.8051216 2.157268 3.978197 -31.10548 -0.07967254 -0 21.06904 -0 -7.133676 -6.438625 1.058294 -6.837149 13.78538 -18.49609 -0 3.247975 -0 11.32057 -19.59626 22.98484 -2.951123 -0.6117157 2.779674 2.605293 9.54048 -7.103259 0.8865824 21.66558 9.247055 4.196917 -25.10446 10.71571 3.657225 -17.73555 11.82308 88.40445 35.64654 -18.78039 -0 0 9.905616 -12.12057 10.34775 7.259689 7.769911 -22.48248 -2.865736 -85.68945 17.38979 10.7846 0 0 -26.54612 18.34192 12.45015 -9.104366
4.032721 100.6664 28.6001 -0.08880703 0.4642852 2.572692 3.639406 -30.96222 -1.126058 -0 20.15829 -0 -7.459818 -5.703369 1.395154 -6.782955 14.09726 -17.96491 -0 3.532863 -0 10.52482 -19.7288 22.21673 -2.795295 -0.5500704 2.63002 2.400363 9.527837 -6.984112 0.8432937 21.87315 9.26397 4.248129 -24.72157 10.55086 3.297562 -17.54751 11.71532 88.79746 35.04424 -18.87984 -0 0 9.473754 -12.78557 10.31016 7.352302 7.883009 -22.77384 -3.194753 -85.28682 17.15181 10.04731 0 0 -27.13421 18.39674 12.62035 -9.431376
4.527708 99.87129 32.48094 0.006271334 0.04913133 2.985718 3.269455 -30.65573 -2.196119 -0 19.14542 -0 -7.819141 -4.844689 1.702565 -6.731616 14.35742 -17.30262 -0 4.033362 -0 9.655201 -19.82589 21.38915 -2.63992 -0.5307892 2.520326 2.174512 9.5675 -6.879587 0.8038083 22.08775 9.214957 4.293217 -24.27662 10.30011 2.900221 -17.39612 11.60678 89.24611 34.28024 -19.04823 -0 0 9.064673 -13.55655 10.21876 7.430871 7.996944 -23.13385 -3.577117 -84.90513 16.86334 9.345526 0 0 -27.68145 18.396 12.81064 -9.699124
5.032103 99.03641 36.58399 0.1318995 -0.4352857 3.387703 2.89878 -30.2133 -3.261994 -0 18.00019 -0 -8.217242 -3.835731 1.967376 -6.67354 14.57434 -16.49876 -0 4.84547 -0 8.702521 -19.87807 20.49628 -2.475897 -0.5477107 2.448101 1.93967 9.666091 -6.800241 0.7668714 22.29643 9.107185 4.335665 -23.795 9.971052 2.456653 -17.28512 11.50444 89.76144 33.33327 -19.30373 -0 0 8.659904 -14.42906 10.0739 7.493953 8.103146 -23.57107 -4.012851 -84.54803 16.51725 8.693721 0 0 -28.19639 18.3303 13.00245 -9.895656
5.543708 98.17747 40.93554 0.2746919 -0.9740918 3.769295 2.564374 -29.66528 -4.289079 -0 16.69128 -0 -8.651605 -2.673832 2.177126 -6.603475 14.76071 -15.55317 -0 6.048779 -0 7.670171 -19.87531 19.53893 -2.294669 -0.6009176 2.412313 1.70862 9.824749 -6.75441 0.7333239 22.48862 8.944812 4.371147 -23.30629 9.577601 1.955876 -17.21788 11.41245 90.35798 32.1873 -19.66373 -0 0 8.240801 -15.37917 9.876244 7.537026 8.190018 -24.08628 -4.496015 -84.22214 16.12278 8.112171 0 0 -28.69658 18.1859 13.18618 -9.998521
6.058092 97.31892 45.56454 0.4133749 -1.551082 4.119357 2.313633 -29.03617 -5.22904 -0 15.20146 -0 -9.121363 -1.375837 2.312046 -6.513438 14.9318 -14.47242 -0 7.745015 -0 6.564002 -19.80051 18.52224 -2.082292 -0.6943834 2.410109 1.496719 10.04209 -6.750571 0.70651 22.657 8.730113 4.385199 -22.84945 9.1438 1.380097 -17.19846 11.33291 91.05801 30.81966 -20.14533 -0 0 7.781968 -16.37053 9.631576 7.554894 8.237799 -24.67408 -5.015348 -83.93956 15.70622 7.631741 0 0 -29.19191 17.94387 13.36675 -9.972386
6.56709 96.49653 50.49963 0.5231086 -2.162487 4.422659 2.198004 -28.32078 -6.023764 -0 13.5461 -0 -9.633227 0.02553358 2.343336 -6.391102 15.09137 -13.26639 -0 10.08147 -0 5.395476 -19.61724 17.45963 -1.820098 -0.8348487 2.438381 1.317925 10.32031 -6.796441 0.6921367 22.79967 8.461179 4.355666 -22.46206 8.697165 0.7063289 -17.23399 11.26743 91.88889 29.20147 -20.75822 -0 0 7.257196 -17.36963 9.353596 7.544367 8.218015 -25.32469 -5.560918 -83.71631 15.29653 7.292599 0 0 -29.67049 17.58775 13.56328 -9.781586
7.057089 95.76161 55.76465 0.5769388 -2.813512 4.657749 2.276318 -27.48085 -6.594008 -0 11.78262 -0 -10.19598 1.469716 2.227955 -6.220095 15.22231 -11.95524 -0 13.25251 -0 4.195111 -19.26509 16.38315 -1.487346 -1.032319 2.496707 1.185666 10.66556 -6.899365 0.6994227 22.91783 8.130308 4.251887 -22.18084 8.268783 -0.08943057 -17.33699 11.21808 92.87902 27.30868 -21.50135 -0 0 6.646061 -18.33878 9.065584 7.506357 8.091841 -26.01865 -6.121034 -83.5738 14.92829 7.15116 0 0 -30.09806 17.10016 13.80458 -9.381649
7.507195 95.18425 61.37145 0.5501609 -3.518608 4.795233 2.611245 -26.43422 -6.834444 -0 10.02397 -0 -10.81595 2.858433 1.903788 -5.979523 15.27104 -10.57514 -0 17.49266 -0 3.024475 -18.65549 15.35259 -1.064954 -1.299634 2.591483 1.110854 11.08963 -7.065267 0.7424263 23.01406 7.720778 4.035674 -22.03608 7.889065 -1.027396 -17.52929 11.18803 94.05271 25.13299 -22.35701 -0 0 5.9453 -19.23452 8.800973 7.450568 7.809893 -26.72211 -6.68127 -83.53838 14.64324 7.285549 0 0 -30.42006 16.45664 14.1232 -8.706711
7.888249 94.85507 67.30821 0.4237706 -4.298221 4.797117 3.257989 -25.04563 -6.615966 -0 8.464942 -0 -11.49346 4.036082 1.290944 -5.641405 15.12176 -9.194265 -0 23.04693 -0 1.986494 -17.67128 14.46453 -0.5404586 -1.645645 2.738722 1.098028 11.60759 -7.293645 0.8409353 23.09065 7.209086 3.666957 -22.04494 7.586498 -2.110883 -17.84287 11.18198 95.41438 22.7158 -23.27542 -0 0 5.187247 -20.00326 8.610539 7.401747 7.315206 -27.37596 -7.21936 -83.64207 14.49541 7.801212 0 0 -30.55959 15.62364 14.54897 -7.66125
8.164748 94.88003 73.5223 0.192233 -5.168679 4.620095 4.23085 -23.12723 -5.818288 -0 7.397178 -0 -12.21901 4.770961 0.3139135 -5.170473 14.5601 -7.932236 -0 30.07041 -0 1.22045 -16.18476 13.84745 0.0815688 -2.058978 2.965879 1.135826 12.22777 -7.56485 1.018685 23.14809 6.57531 3.120402 -22.19611 7.384189 -3.300316 -18.31426 11.20522 96.91498 20.21229 -24.15025 -0 0 4.47058 -20.58138 8.573059 7.406513 6.558956 -27.88233 -7.696883 -83.92086 14.55653 8.825678 0 0 -30.42272 14.56228 15.09776 -6.123932
8.303517 95.35832 79.90335 -0.1224869 -6.116701 4.228535 5.44244 -20.47548 -4.414271 -0 7.16066 -0 -12.96565 4.764543 -1.034031 -4.534718 13.24432 -6.962779 -0 38.39592 -0 0.854808 -14.11791 13.61898 0.7610269 -2.481903 3.309665 1.182029 12.92863 -7.819047 1.293912 23.18279 5.826862 2.41858 -22.42643 7.2914 -4.473457 -18.96591 11.26084 98.39471 17.9757 -24.79534 -0 0 3.998554 -20.9082 8.800606 7.534476 5.540193 -28.0992 -8.048876 -84.40822 14.91598 10.4768 0 0 -29.92373 13.24261 15.75016 -3.982167
8.292517 96.33427 86.28465 -0.4548474 -7.057531 3.621786 6.649626 -16.97297 -2.592187 -0 7.957658 -0 -13.66679 3.742891 -2.577982 -3.736654 10.73914 -6.451715 -0 47.18204 -0 0.905062 -11.55704 13.79384 1.400159 -2.79034 3.804596 1.155994 13.6281 -7.941843 1.654735 23.18175 5.033426 1.674196 -22.60622 7.287004 -5.391504 -19.77444 11.34763 99.51821 16.58968 -24.94964 -0 0 4.093521 -20.9642 9.414781 7.858231 4.367499 -27.87026 -8.184264 -85.1233 15.64457 12.79008 0 0 -29.02569 11.68487 16.41585 -1.243031
8.164003 97.73665 92.48863 -0.7008401 -7.805016 2.863494 7.509671 -12.72721 -0.7944446 -0 9.55063 -0 -14.16436 1.651416 -3.884527 -2.848434 6.7065 -6.400685 -0 54.70921 -0 1.195243 -8.858346 14.21157 1.842129 -2.828664 4.457894 0.9759299 14.17916 -7.80237 2.023563 23.11414 4.341777 1.090105 -22.58219 7.303572 -5.736868 -20.65174 11.46448 99.78798 16.68478 -24.34524 -0 0 5.112986 -20.81708 10.46062 8.400174 3.28804 -27.11477 -8.02162 -86.05518 16.68001 15.62412 0 0 -27.746 10.04487 16.90246 1.754758
